<?xml version="1.0" encoding="UTF-8" standalone="no"?>
<svg
   width="60"
   height="18"
   version="1.1"
   viewBox="0 0 88.66 26.598"
   id="svg1"
   sodipodi:docname="yandex-logo-rating.svg"
   inkscape:version="1.4.2 (ebf0e940d0, 2025-05-08)"
   xmlns:inkscape="http://www.inkscape.org/namespaces/inkscape"
   xmlns:sodipodi="http://sodipodi.sourceforge.net/DTD/sodipodi-0.dtd"
   xmlns="http://www.w3.org/2000/svg"
   xmlns:svg="http://www.w3.org/2000/svg">
  <defs
     id="defs1" />
  <sodipodi:namedview
     id="namedview1"
     pagecolor="#ffffff"
     bordercolor="#000000"
     borderopacity="0.25"
     inkscape:showpageshadow="2"
     inkscape:pageopacity="0.0"
     inkscape:pagecheckerboard="0"
     inkscape:deskcolor="#d1d1d1"
     inkscape:zoom="10.435718"
     inkscape:cx="30.807656"
     inkscape:cy="4.7912374"
     inkscape:window-width="1088"
     inkscape:window-height="1014"
     inkscape:window-x="0"
     inkscape:window-y="0"
     inkscape:window-maximized="0"
     inkscape:current-layer="svg1" />
  <path
     d="m10.81 22.03h3.83v-22.03h-5.58c-5.61 0-8.55 2.88-8.55 7.13 0 3.39 1.61 5.39 4.5 7.45l-5.01 7.45h4.15l5.58-8.34-1.93-1.3c-2.35-1.58-3.49-2.82-3.49-5.48 0-2.35 1.65-3.93 4.79-3.93h1.71zm73.95 0.31c1.75 0 2.98-0.31 3.9-0.98v-3.07c-0.95 0.66-2.09 1.07-3.67 1.07-2.7 0-3.81-2.09-3.81-5.38 0-3.46 1.37-5.23 3.84-5.23 1.46 0 2.88 0.5 3.64 0.98v-3.2c-0.79-0.45-2.18-0.76-4.05-0.76-4.82 0-7.33 3.45-7.33 8.3 0 5.33 2.44 8.27 7.48 8.27zm-23.58-1.39v-3.08c-1.17 0.8-3.14 1.49-4.98 1.49-2.76 0-3.8-1.29-3.96-3.96h9.1v-1.99c0-5.55-2.44-7.64-6.22-7.64-4.59 0-6.78 3.51-6.78 8.33 0 5.55 2.73 8.24 7.55 8.24 2.4 0 4.18-0.63 5.29-1.39zm12.05 1.08h4.27l-6.05-8.47 5.33-7.48h-3.81l-5.32 7.48v-7.48h-3.78v15.95h3.78v-7.71zm-25.81-2.98h-1.68v-12.97h-11v1.37c0 3.89-0.25 8.93-1.58 11.6h-1.18v6.62h3.49v-3.64h8.46v3.64h3.49zm-20.79-12.97v6.31h-5.04v-6.31h-3.78v15.95h3.78v-6.66h5.04v6.66h3.77v-15.95zm28.43 2.67c1.87 0 2.44 1.55 2.44 3.55v0.31h-5.26c0.1-2.53 1.01-3.86 2.82-3.86zm-13.09 10.3h-5.33c1.05-2.41 1.34-6.75 1.34-9.51v-0.48h3.99z"
     id="path1"
     style="fill:#ff0000" />
</svg>
